<?xml version="1.0" standalone="no"?>
<!DOCTYPE svg PUBLIC "-//W3C//DTD SVG 20010904//EN"
 "http://www.w3.org/TR/2001/REC-SVG-20010904/DTD/svg10.dtd">
<svg version="1.0" xmlns="http://www.w3.org/2000/svg"
 width="100.000000pt" height="100.000000pt" viewBox="0 0 100.000000 100.000000"
 preserveAspectRatio="xMidYMid meet">
<metadata>
Created by potrace 1.11, written by Peter Selinger 2001-2013
</metadata>
<g transform="translate(0.000000,100.000000) scale(0.100000,-0.100000)"
fill="#000000" stroke="none">
<path d="M362 964 c-24 -16 -29 -39 -11 -50 6 -3 16 -1 22 5 13 13 44 15 51 3
2 -4 7 -26 11 -49 5 -39 3 -44 -40 -87 l-46 -45 2 -96 c2 -101 12 -151 54
-280 45 -135 50 -196 24 -265 -21 -56 -11 -83 28 -75 125 22 264 413 224 630
-23 121 -58 173 -124 180 -18 2 -35 4 -38 4 -3 1 -15 25 -28 55 -17 41 -30 58
-56 70 -41 20 -45 20 -73 0z m79 -23 c13 -10 30 -36 38 -57 18 -51 29 -64 56
-64 28 0 85 -20 85 -30 0 -4 -11 -5 -24 -3 -15 3 -30 -2 -43 -16 -12 -13 -23
-17 -32 -12 -18 12 -52 2 -79 -23 -22 -19 -24 -20 -33 -4 -6 10 -17 15 -27 12
-9 -3 3 12 27 33 39 35 43 44 43 82 -1 23 -8 54 -17 67 -16 24 -49 32 -60 14
-3 -5 -12 -10 -18 -10 -18 1 25 30 44 30 9 0 27 -8 40 -19z m5 -292 c1 -13 11
-46 23 -73 12 -27 19 -57 16 -68 -8 -24 -21 -16 -30 19 -3 15 -14 44 -24 64
-19 39 -17 93 3 86 6 -2 11 -15 12 -28z m49 -199 c9 -15 -6 -60 -21 -60 -12 0
-14 33 -5 68 2 6 20 1 26 -8z"/>
</g>
</svg>
