<?xml version="1.0" encoding="utf-8"?>
<!-- Generator: Adobe Illustrator 25.2.0, SVG Export Plug-In . SVG Version: 6.00 Build 0)  -->
<svg version="1.1" id="Camada_1" xmlns="http://www.w3.org/2000/svg" xmlns:xlink="http://www.w3.org/1999/xlink" x="0px" y="0px"
	 viewBox="0 0 1428.66 189.9" style="enable-background:new 0 0 1428.66 189.9;" xml:space="preserve">
<style type="text/css">
	.st0{clip-path:url(#SVGID_2_);fill:none;stroke:#1D1D1B;stroke-width:3;stroke-miterlimit:9.914;}
</style>
<g>
	<defs>
		<rect id="SVGID_1_" width="1428.66" height="189.9"/>
	</defs>
	<clipPath id="SVGID_2_">
		<use xlink:href="#SVGID_1_"  style="overflow:visible;"/>
	</clipPath>
	<path class="st0" d="M1398.44,131.19c5.28,5.51,10.8,16.08,3.91,25.73c-6.89,9.65-19.07,11.03-38.83,0.92l-65.25-33.54
		c-13.55-6.89-16.77-19.3-7.35-33.31l28.26-41.81c11.03-16.31,5.06-42.73-19.53-42.73c-17.46,0-26.88,10.34-26.88,35.84v74.44
		c0,43.65,31.7,71.22,78.11,71.22c49.86,0,76.28-20.68,76.28-65.02V36.76c0-19.99-6.43-30.33-22.97-30.33
		c-13.1,0-20.91,8.27-20.91,19.3c0,8.5,5.05,14.47,15.16,26.19l13.33,15.39c4.59,5.28,2.99,9.19,0.46,11.72
		c-1.84,1.84-5.97,3.45-10.8-0.46l-26.65-21.6c-22.75-18.38-41.59,3.45-23.21,23.43L1398.44,131.19z M1230.88,99.72
		c7.81,9.42,5.51,19.76-5.51,24.12l-87.08,34.92c-18.38,7.35-32.85-4.6-26.19-26.19l31.02-99.02c3.68-11.95,18.38-17.46,27.11-7.12
		L1230.88,99.72z M1166.32,6.44c-53.3,0-81.33,31.02-81.33,91.21c0,60.19,28.03,90.29,81.33,90.29c53.53,0,81.56-30.1,81.56-90.29
		C1247.88,37.45,1219.85,6.44,1166.32,6.44z M1019.97,37.22l-2.07,52.84c-0.23,5.74-6.89,6.89-9.19,3.45l-42.73-65.48
		C956.79,14.02,949.9,6.9,935.42,6.9c-36.99,0-41.13,52.15-32.4,73.29c2.53,6.2,8.73,7.81,12.18,6.43c6.89-3.22,9.42-8.5,5.97-19.07
		l-9.65-28.49c-2.53-8.5,4.82-12.64,10.8-4.13l34.92,49.63c8.73,12.41,6.66,17.92-3.22,26.65l-36.99,31.93
		c-19.07,16.31-15.85,44.34,11.49,44.34c17,0,24.58-9.88,27.57-25.96l9.19-48.25c1.15-5.74,7.12-6.89,9.19-3.45l20.45,34
		c22.06,36.76,35.61,44.57,53.99,44.57c10.11,0,25.04-5.97,25.04-23.43c0-14.48-8.04-25.5-27.57-25.73l-36.3-0.23
		c-8.04,0-9.65-4.37-9.88-8.5c0-3.45,1.38-6.66,5.74-11.49l50.31-57.21c14.24-16.31,14.93-25.04,14.93-34.92
		c0-10.34-8.96-19.76-24.35-19.76C1031,7.13,1020.89,14.48,1019.97,37.22z M804.7,60.89c0,4.13,1.84,7.35,7.58,7.35h9.88
		c7.35,0,11.49,1.84,11.49,7.12c0,1.15-0.23,2.53-0.69,4.13l-18.61,68.01c-6.2,22.97,5.97,40.44,32.16,40.44
		c17.69,0,36.07-7.81,34.46-23.21c-1.38-13.33-12.64-14.7-22.29-10.57l-27.57,11.95c-4.36,1.84-8.27-2.07-8.27-6.66
		c0-2.3,1.15-4.14,4.83-8.27l43.88-50.09c15.16-17.46,7.35-36.99-15.85-34.23l-15.62,1.84c-2.07,0.23-5.97,0.23-5.97-3.68
		c0-2.3,1.38-4.36,4.36-5.28l25.27-8.73c11.03-3.9,18.84-9.88,18.84-22.75c0-13.78-11.26-21.83-22.97-21.83
		c-6.66,0-13.33,2.53-18.15,8.04L815.5,44.35C809.75,51.01,804.7,57.21,804.7,60.89z M783.68,158.99
		c0-14.24-11.49-23.66-26.65-23.89l-45.26-0.46c-8.73,0-12.41-1.84-12.41-7.12c0-5.51,4.36-8.27,9.88-10.11l37.68-13.32
		c32.4-11.49,38.14-25.5,38.14-41.13c0-20.68-13.55-56.52-70.3-56.52c-69.84,0-102.7,59.5-102.7,137.62
		c0,32.85,15.85,43.88,30.1,43.88c26.19,0,28.95-20.22,19.99-41.35l-23.43-55.14c-1.84-4.37-2.99-8.96-2.99-13.33
		c0-16.31,12.87-30.33,36.53-30.33h71.91c16.77,0,25.5,8.73,25.5,19.99c0,11.95-8.04,22.97-32.62,19.76l-69.84-8.96
		c-8.5-1.15-13.1,0.46-13.33,6.43c0,3.22,2.3,8.04,7.35,14.47l56.75,68.69c12.64,15.39,24.81,19.76,34,19.76
		C775.87,187.94,783.68,173.47,783.68,158.99z M515.29,37.68L478.3,145.21c-9.42,25.04-4.36,42.73,20.22,42.73
		c22.06,0,26.65-12.64,27.11-36.99l2.53-112.35c0.23-14.47,2.76-20.45,8.96-20.45c7.81,0,10.11,7.58,10.11,17.69v10.11
		c0,31.7,6.66,46.87,27.57,46.18c14.7-0.46,25.73-13.1,25.73-27.34c0-31.94-25.27-54.91-66.86-54.91h-78.57
		c-23.89,0-31.48,13.78-31.48,25.5c0,26.42,34,39.75,55.14,16.31l25.73-28.72c2.3-2.53,4.83-3.68,6.89-3.68
		C517.58,19.3,519.88,24.59,515.29,37.68z M350.24,130.96l-59.28,1.38c-20.22,0.46-36.76,8.04-36.76,26.42
		c0,21.6,14.93,29.18,28.26,29.18c18.84,0,35.84-17,46.41-25.96l22.51-19.3c8.04-6.89,14.7-5.28,14.7,7.35v11.95
		c0,14.01,8.96,25.96,27.8,25.96c23.66,0,31.48-19.76,26.65-45.49L399.63,31.94c-2.99-15.62-12.41-25.5-26.19-25.5
		c-14.93,0-23.2,5.97-43.19,21.83l-46.18,36.76c-10.57,8.5-17.46,17.46-17.46,27.34c0,14.25,11.03,25.5,24.58,25.5
		c8.5,0,21.37-2.99,28.72-18.15l27.8-56.98c3.45-7.12,11.72-24.58,21.37-26.42c9.65-1.84,15.85,6.2,14.24,18.84l-9.88,81.33
		C372.06,128.21,363.33,130.73,350.24,130.96z M145.78,116.72c2.53,16.77-0.92,24.12-8.27,24.12c-4.36,0-8.96-2.76-12.41-11.26
		L87.89,39.29C78.01,15.4,62.84,6.21,44.69,6.21c-26.65,0-42.04,17.92-42.04,69.61v48.48c0,33.31,3.68,63.64,33.77,63.64
		c24.81,0,29.64-23.43,19.99-47.1L24.71,62.96c-2.07-5.05-5.06-15.39-5.06-21.83c0-13.1,7.58-22.75,20.45-22.75
		c10.57,0,19.99,5.97,18.15,17.69l-2.07,13.1c-2.99,19.07,1.84,39.75,8.73,53.53l26.65,52.84c12.41,24.81,20.91,32.4,31.48,32.4
		c15.39,0,22.75-14.01,29.64-36.99l36.3-119.93c6.2-20.45,30.56-13.79,25.27,5.28l-25.96,91.67c-2.53,8.96-7.58,23.43-7.58,33.31
		c0,11.72,5.97,26.65,25.27,26.65c12.87,0,28.03-8.04,27.8-34.23l-0.46-76.51c-0.23-55.6-11.95-70.76-40.9-70.76
		c-36.3,0-58.82,26.65-52.61,69.38L145.78,116.72z"/>
	<path class="st0" d="M30.22,58.71c-5.28-5.51-10.8-16.08-3.91-25.73c6.89-9.65,19.07-11.03,38.83-0.92l65.25,33.54
		c13.55,6.89,16.77,19.3,7.35,33.31l-28.26,41.82c-11.03,16.31-5.06,42.73,19.53,42.73c17.46,0,26.88-10.34,26.88-35.84V73.18
		c0-43.65-31.7-71.22-78.11-71.22C27.92,1.96,1.5,22.64,1.5,66.98v86.16c0,19.99,6.43,30.33,22.97,30.33
		c13.1,0,20.91-8.27,20.91-19.3c0-8.5-5.05-14.47-15.16-26.19l-13.33-15.39c-4.59-5.28-2.99-9.19-0.46-11.72
		c1.84-1.84,5.97-3.45,10.8,0.46l26.65,21.6c22.75,18.38,41.59-3.45,23.21-23.43L30.22,58.71z M197.77,90.18
		c-7.81-9.42-5.51-19.76,5.51-24.12l87.08-34.92c18.38-7.35,32.85,4.6,26.19,26.19l-31.02,99.02c-3.68,11.95-18.38,17.46-27.11,7.12
		L197.77,90.18z M262.33,183.46c53.3,0,81.33-31.02,81.33-91.21c0-60.19-28.03-90.29-81.33-90.29c-53.53,0-81.56,30.1-81.56,90.29
		C180.77,152.45,208.8,183.46,262.33,183.46z M408.68,152.68l2.07-52.84c0.23-5.74,6.89-6.89,9.19-3.45l42.73,65.48
		c9.19,14.01,16.08,21.14,30.56,21.14c36.99,0,41.13-52.15,32.4-73.29c-2.53-6.2-8.73-7.81-12.18-6.43
		c-6.89,3.22-9.42,8.5-5.97,19.07l9.65,28.49c2.53,8.5-4.82,12.64-10.8,4.13l-34.92-49.63c-8.73-12.41-6.66-17.92,3.22-26.65
		l36.99-31.93c19.07-16.31,15.85-44.34-11.49-44.34c-17,0-24.58,9.88-27.57,25.96l-9.19,48.25c-1.15,5.74-7.12,6.89-9.19,3.45
		l-20.45-34C411.67,9.31,398.11,1.5,379.73,1.5c-10.11,0-25.04,5.97-25.04,23.43c0,14.48,8.04,25.5,27.57,25.73l36.3,0.23
		c8.04,0,9.65,4.36,9.88,8.5c0,3.45-1.38,6.66-5.74,11.49l-50.32,57.21c-14.24,16.31-14.93,25.04-14.93,34.92
		c0,10.34,8.96,19.76,24.35,19.76C397.65,182.77,407.76,175.42,408.68,152.68z M623.95,129.01c0-4.14-1.84-7.35-7.58-7.35h-9.88
		c-7.35,0-11.49-1.84-11.49-7.12c0-1.15,0.23-2.53,0.69-4.14l18.61-68.01c6.2-22.98-5.97-40.44-32.16-40.44
		c-17.69,0-36.07,7.81-34.46,23.21c1.38,13.33,12.64,14.7,22.29,10.57l27.57-11.95c4.36-1.84,8.27,2.07,8.27,6.66
		c0,2.3-1.15,4.14-4.83,8.27L557.1,88.8c-15.16,17.46-7.35,36.99,15.85,34.23l15.62-1.84c2.07-0.23,5.97-0.23,5.97,3.68
		c0,2.3-1.38,4.36-4.36,5.28l-25.27,8.73c-11.03,3.9-18.84,9.88-18.84,22.75c0,13.78,11.26,21.83,22.97,21.83
		c6.66,0,13.33-2.53,18.15-8.04l25.96-29.87C618.9,138.89,623.95,132.69,623.95,129.01z M644.97,30.91
		c0,14.24,11.49,23.66,26.65,23.89l45.26,0.46c8.73,0,12.41,1.84,12.41,7.12c0,5.51-4.36,8.27-9.88,10.11l-37.68,13.32
		c-32.4,11.49-38.14,25.5-38.14,41.13c0,20.68,13.55,56.52,70.3,56.52c69.84,0,102.7-59.51,102.7-137.62
		c0-32.86-15.85-43.88-30.1-43.88c-26.19,0-28.95,20.22-19.99,41.36l23.43,55.14c1.84,4.36,2.99,8.96,2.99,13.32
		c0,16.31-12.87,30.33-36.53,30.33h-71.91c-16.77,0-25.5-8.73-25.5-19.99c0-11.95,8.04-22.97,32.62-19.76l69.84,8.96
		c8.5,1.15,13.1-0.46,13.33-6.43c0-3.22-2.3-8.04-7.35-14.47l-56.75-68.69c-12.64-15.39-24.81-19.76-34-19.76
		C652.79,1.96,644.97,16.43,644.97,30.91z M913.37,152.22l36.99-107.52c9.42-25.04,4.36-42.73-20.22-42.73
		c-22.06,0-26.65,12.64-27.11,36.99L900.5,151.3c-0.23,14.47-2.76,20.45-8.96,20.45c-7.81,0-10.11-7.58-10.11-17.69v-10.11
		c0-31.71-6.66-46.87-27.57-46.18c-14.7,0.46-25.73,13.1-25.73,27.34c0,31.93,25.27,54.91,66.86,54.91h78.57
		c23.9,0,31.48-13.78,31.48-25.5c0-26.42-34-39.75-55.14-16.31l-25.73,28.72c-2.3,2.53-4.83,3.68-6.89,3.68
		C911.07,170.6,908.77,165.31,913.37,152.22z M1078.42,58.94l59.28-1.38c20.22-0.46,36.76-8.04,36.76-26.42
		c0-21.6-14.93-29.18-28.26-29.18c-18.84,0-35.84,17-46.41,25.96l-22.52,19.3c-8.04,6.89-14.7,5.28-14.7-7.35V27.92
		c0-14.01-8.96-25.96-27.8-25.96c-23.66,0-31.48,19.76-26.65,45.49l20.91,110.51c2.99,15.62,12.41,25.5,26.19,25.5
		c14.93,0,23.2-5.97,43.19-21.83l46.18-36.76c10.57-8.5,17.46-17.46,17.46-27.34c0-14.25-11.03-25.5-24.58-25.5
		c-8.5,0-21.37,2.99-28.72,18.15l-27.8,56.98c-3.45,7.12-11.72,24.58-21.37,26.42c-9.65,1.84-15.85-6.2-14.24-18.84l9.88-81.33
		C1056.59,61.69,1065.32,59.17,1078.42,58.94z M1282.87,73.18c-2.53-16.77,0.92-24.12,8.27-24.12c4.36,0,8.96,2.76,12.41,11.26
		l37.22,90.29c9.88,23.89,25.04,33.08,43.19,33.08c26.65,0,42.04-17.92,42.04-69.61V65.6c0-33.31-3.68-63.64-33.77-63.64
		c-24.81,0-29.64,23.44-19.99,47.1l31.71,77.89c2.07,5.05,5.05,15.39,5.05,21.83c0,13.1-7.58,22.75-20.45,22.75
		c-10.57,0-19.99-5.97-18.15-17.69l2.07-13.1c2.99-19.07-1.84-39.75-8.73-53.53l-26.65-52.84c-12.41-24.81-20.91-32.4-31.48-32.4
		c-15.39,0-22.74,14.01-29.64,36.99l-36.3,119.93c-6.2,20.45-30.56,13.79-25.27-5.28l25.96-91.67c2.53-8.96,7.58-23.43,7.58-33.31
		c0-11.72-5.97-26.65-25.27-26.65c-12.87,0-28.03,8.04-27.8,34.23l0.46,76.51c0.23,55.6,11.95,70.76,40.9,70.76
		c36.3,0,58.82-26.65,52.61-69.38L1282.87,73.18z"/>
</g>
</svg>
