<?xml version="1.0" encoding="utf-8"?>
<!-- Generator: Adobe Illustrator 25.2.0, SVG Export Plug-In . SVG Version: 6.00 Build 0)  -->
<svg version="1.1" id="Camada_1" xmlns="http://www.w3.org/2000/svg" xmlns:xlink="http://www.w3.org/1999/xlink" x="0px" y="0px"
	 viewBox="0 0 176.15 246.5" style="enable-background:new 0 0 176.15 246.5;" xml:space="preserve">
<style type="text/css">
	.st0{clip-path:url(#SVGID_2_);fill:none;stroke:#000000;stroke-width:2;}
</style>
<g>
	<defs>
		<rect id="SVGID_1_" width="176.15" height="246.5"/>
	</defs>
	<clipPath id="SVGID_2_">
		<use xlink:href="#SVGID_1_"  style="overflow:visible;"/>
	</clipPath>
	<path class="st0" d="M106.53,87.01c1.15,0.71,1.73,2.03,1.73,3.98c0,1.59-0.97,3.1-2.92,4.51c-1.24,0.88-2.56,2.21-3.98,3.98
		c-1.41,1.77-2.3,3.36-2.65,4.78c-0.53,1.95-2.03,2.92-4.51,2.92c-0.7,0-1.68-0.31-2.92-0.93c-1.24-0.62-1.86-1.9-1.86-3.85
		c0-2.3,1.33-5.09,3.98-8.36c2.65-3.28,5.04-5.62,7.17-7.03c0.89-0.71,1.86-1.06,2.92-1.06C104.36,85.95,105.38,86.31,106.53,87.01z
		 M89.8,113.43c0.97,0.97,1.46,2.08,1.46,3.32c0,1.24-0.26,2.21-0.8,2.92c-1.77,2.83-3.1,6.19-3.98,10.09
		c-0.88,3.89-1.42,7.08-1.59,9.56c-0.35,3.19-0.75,6.11-1.19,8.76c-0.44,2.65-0.93,4.78-1.46,6.37c-0.88,2.65-2.52,5.13-4.91,7.43
		c-2.39,2.3-4.56,3.45-6.5,3.45c-1.59,0-2.83-0.58-3.72-1.72c-0.88-1.15-1.33-2.26-1.33-3.32c0-1.59,1.24-3.1,3.72-4.51
		c1.77-0.89,3.05-2.61,3.85-5.18c0.8-2.57,1.37-5.97,1.72-10.22c0.53-6.02,1.37-11.11,2.52-15.26c1.15-4.16,2.7-7.83,4.65-11.02
		c0.89-1.42,2.22-2.12,3.98-2.12C87.64,111.97,88.83,112.45,89.8,113.43z M5.51,158.56c0.36,0.09,0.71,0.22,1.06,0.4
		c0.71,0.35,1.33,0.84,1.86,1.46c0.53,0.62,0.89,1.19,1.06,1.73c0.53,1.06,1.15,1.95,1.86,2.65c1.42,1.41,2.97,2.34,4.65,2.79
		c1.68,0.44,3.41,0.66,5.18,0.66c1.24,0,2.7-0.22,4.38-0.66c1.68-0.44,3.23-1.37,4.65-2.79c0.53-0.53,1.06-0.8,1.59-0.8
		c0.89,0,1.51,0.8,1.86,2.39c0.71,3.01,2.83,5.71,6.37,8.1c3.54,2.39,7.35,3.58,11.42,3.58c2.83,0,4.87-0.49,6.11-1.46
		c1.24-0.98,3.01-1.46,5.31-1.46c1.06,0,2.08,0.13,3.05,0.4c0.97,0.27,1.46,0.49,1.46,0.66c0,0.17-0.26,0.7-0.8,1.59
		c-0.88,1.24-1.33,2.56-1.33,3.98c0,0.71,0.09,1.5,0.26,2.39c0.18,0.88,0.62,1.68,1.33,2.39c0.53,0.53,1.33,0.97,2.39,1.33
		c1.06,0.35,2.92,0.53,5.57,0.53h0.53c-1.24,1.24-3.63,2.43-7.17,3.58c-3.54,1.15-6.99,1.73-10.35,1.73c-1.06,0-2.21-0.04-3.45-0.13
		c-1.24-0.09-2.48-0.22-3.72-0.4c-1.59-0.18-4.02,0.75-7.3,2.79c-3.27,2.03-5.35,3.85-6.24,5.44c-0.53,0.88-1.15,1.81-1.86,2.79
		c-0.7,0.97-1.24,1.9-1.59,2.79l-1.06,2.39c-0.88,1.95-1.86,4.16-2.92,6.64c-1.06,2.48-1.86,4.6-2.39,6.37
		c-0.18,0.35-0.22,0.8-0.13,1.33c0.09,0.53,0.13,0.97,0.13,1.33c0,4.25,1.06,7.43,3.18,9.56c1.95,1.94,4.78,2.92,8.5,2.92h1.99
		c0.62,0,1.19-0.09,1.72-0.27c0.36,0,0.62-0.04,0.8-0.13c0.18-0.09,0.44-0.13,0.8-0.13c0.36-0.36,1.06-0.53,2.12-0.53h0.53v0.26
		v0.93c0,0.44-0.27,0.93-0.8,1.46c-1.59,1.59-4.16,2.39-7.7,2.39c-2.3,0-4.16-0.36-5.58-1.06c-3.54-1.77-6.24-4.43-8.1-7.96
		c-1.86-3.54-2.88-6.02-3.05-7.43c-0.17-0.89-0.31-1.59-0.4-2.12c-0.09-0.53-0.13-1.15-0.13-1.86c0-1.77,0.31-3.81,0.93-6.11
		c0.62-2.3,1.29-5.04,1.99-8.23c0.53-1.95,0.97-3.68,1.33-5.18c0.36-1.51,0.8-2.97,1.33-4.38c0.18-0.53,0.26-1.59,0.26-3.19
		c0-1.95-0.35-3.85-1.06-5.71c-0.7-1.86-1.59-3.14-2.65-3.85c-4.95-3.01-9.33-6.95-13.14-11.81c-3.8-4.87-5.71-9.69-5.71-14.47
		C4.81,158.34,5.16,158.47,5.51,158.56z M133.34,7.24c-10.35,4.16-21.37,9.91-33.05,17.26C88.61,31.84,77.1,40.51,65.78,50.51
		c-11.32,10-21.64,20.88-30.93,32.65c-9.29,11.77-16.68,24.02-22.17,36.77c-4.78,10.97-7.57,18.76-8.36,23.36
		c-0.8,4.6-1.2,7.61-1.2,9.03v2.12c-0.17,0-0.31,0.04-0.4,0.13c-0.09,0.09-0.22,0.13-0.4,0.13C1.44,155.59,1,156.83,1,158.43
		c0,1.77,0.53,3.98,1.59,6.64c1.06,2.65,2.04,4.95,2.92,6.9c1.59,3.19,3.76,6.06,6.5,8.63c2.75,2.56,5.89,4.91,9.42,7.04
		c1.24,0.88,1.86,2.92,1.86,6.11c0,1.24-0.09,2.12-0.27,2.65c-0.35,1.24-0.71,2.61-1.06,4.12c-0.35,1.5-0.88,3.23-1.59,5.18
		c-1.06,3.19-1.77,6.01-2.12,8.5c-0.35,2.48-0.53,4.78-0.53,6.9v2.26c0,0.8,0.09,1.55,0.26,2.26c0.53,1.24,1.24,3.05,2.12,5.44
		c0.89,2.39,2.21,4.82,3.98,7.3c1.77,2.48,4.07,4.34,6.9,5.58c2.48,1.06,4.87,1.59,7.17,1.59c4.43,0,7.88-1.24,10.35-3.72
		c1.42-1.42,2.12-2.92,2.12-4.51c0-0.89-0.09-1.5-0.26-1.86c-1.06-1.77-2.3-2.65-3.72-2.65c-0.71,0-1.37,0.09-1.99,0.27
		c-0.62,0.17-1.1,0.35-1.46,0.53h-1.06c-0.53,0.17-1.06,0.26-1.59,0.26h-1.59c-2.83,0-4.78-0.62-5.84-1.86
		c-1.41-1.77-2.12-4.07-2.12-6.9v-2.12c0-1.24,0.53-2.88,1.59-4.91c1.06-2.04,2.22-4.38,3.45-7.04l1.06-2.12
		c0.53-0.89,1.02-1.82,1.46-2.79c0.44-0.98,1.02-1.9,1.73-2.79c0.71-1.06,2.35-2.39,4.91-3.98c2.57-1.59,4.21-2.39,4.91-2.39
		c1.24,0.17,2.43,0.26,3.58,0.26h3.85c3.19,0,6.28-0.26,9.29-0.8c3.01-0.53,5.84-1.68,8.5-3.45c0.89-0.53,2.12-1.37,3.72-2.52
		c1.59-1.15,2.39-2.43,2.39-3.85c0-0.36-0.09-0.62-0.27-0.8l0.8-0.8c3.01-2.12,6.28-5.71,9.82-10.75
		c3.54-5.04,7.04-10.75,10.49-17.12c3.45-6.37,6.51-12.61,9.16-18.72c2.65-6.11,4.69-11.28,6.11-15.53
		c1.24-3.89,2.61-8.67,4.12-14.33c1.51-5.67,3.1-11.64,4.78-17.92c1.68-6.28,3.45-12.26,5.31-17.92c1.86-5.67,3.67-10.44,5.44-14.34
		c3.01-6.2,6.95-12.83,11.81-19.91c4.87-7.08,12.08-13.01,21.64-17.79c1.77-0.88,2.97-2.03,3.58-3.45c0.62-1.41,0.93-2.83,0.93-4.25
		c0-4.6-1.37-7.74-4.12-9.43C168.3,1.84,164.62,1,160.02,1C152.59,1,143.69,3.08,133.34,7.24z"/>
</g>
</svg>
